<?xml version="1.0" encoding="UTF-8" standalone="no"?><!DOCTYPE svg PUBLIC "-//W3C//DTD SVG 1.1//EN" "http://www.w3.org/Graphics/SVG/1.1/DTD/svg11.dtd"><!-- Generated by graphviz version 2.40.1 (20161225.0304)
 --><!-- Title: G Pages: 1 --><svg xmlns="http://www.w3.org/2000/svg" xmlns:xlink="http://www.w3.org/1999/xlink" width="310pt" height="274pt" viewBox="0.00 0.00 310.00 274.19">
<g id="graph0" class="graph" transform="scale(1 1) rotate(0) translate(4 270.1901)">
<title>G</title>
<polygon fill="#ffffff" stroke="transparent" points="-4,4 -4,-270.1901 306,-270.1901 306,4 -4,4"/>
<g id="clust1" class="cluster">
<title>cluster_1</title>
<polygon fill="none" stroke="#000000" points="8,-8 8,-164.9901 294,-164.9901 294,-8 8,-8"/>
<text text-anchor="start" x="99.6697" y="-148.3901" font-family="Times,serif" font-size="14.00" fill="#000000">main car wash</text>
<text text-anchor="start" x="99.6697" y="-131.5901" font-family="Times,serif" font-size="14.00" fill="#000000"> * simulationTime</text>
<text text-anchor="middle" x="151" y="-114.7901" font-family="Times,serif" font-size="14.00" fill="#000000"> * tickFreq</text>
</g>
<!-- bay1 -->
<g id="node1" class="node">
<title>bay1</title>
<ellipse fill="none" stroke="#000000" cx="247" cy="-57.295" rx="38.622" ry="41.0911"/>
<text text-anchor="start" x="227.5568" y="-69.895" font-family="Times,serif" font-size="14.00" fill="#000000">bay </text>
<text text-anchor="start" x="227.5568" y="-53.095" font-family="Times,serif" font-size="14.00" fill="#000000"> * size</text>
<text text-anchor="middle" x="247" y="-36.295" font-family="Times,serif" font-size="14.00" fill="#000000"> * time</text>
</g>
<!-- bay2 -->
<g id="node2" class="node">
<title>bay2</title>
<ellipse fill="none" stroke="#000000" cx="151" cy="-57.295" rx="38.622" ry="41.0911"/>
<text text-anchor="start" x="131.5568" y="-69.895" font-family="Times,serif" font-size="14.00" fill="#000000">bay </text>
<text text-anchor="start" x="131.5568" y="-53.095" font-family="Times,serif" font-size="14.00" fill="#000000"> * size</text>
<text text-anchor="middle" x="151" y="-36.295" font-family="Times,serif" font-size="14.00" fill="#000000"> * time</text>
</g>
<!-- bay3 -->
<g id="node3" class="node">
<title>bay3</title>
<ellipse fill="none" stroke="#000000" cx="55" cy="-57.295" rx="38.622" ry="41.0911"/>
<text text-anchor="start" x="35.5568" y="-69.895" font-family="Times,serif" font-size="14.00" fill="#000000">bay </text>
<text text-anchor="start" x="35.5568" y="-53.095" font-family="Times,serif" font-size="14.00" fill="#000000"> * size</text>
<text text-anchor="middle" x="55" y="-36.295" font-family="Times,serif" font-size="14.00" fill="#000000"> * time</text>
</g>
<!-- car generator -->
<g id="node4" class="node">
<title>car generator</title>
<polygon fill="none" stroke="#000000" points="297.6397,-266.3915 196.3603,-266.3915 196.3603,-207.5887 297.6397,-207.5887 297.6397,-266.3915"/>
<text text-anchor="start" x="204.4302" y="-249.5901" font-family="Times,serif" font-size="14.00" fill="#000000">car generator</text>
<text text-anchor="start" x="204.4302" y="-232.7901" font-family="Times,serif" font-size="14.00" fill="#000000"> * delay</text>
<text text-anchor="middle" x="247" y="-215.9901" font-family="Times,serif" font-size="14.00" fill="#000000"> * random seed</text>
</g>
<!-- car generator&#45;&gt;bay1 -->
<g id="edge1" class="edge">
<title>car generator-&gt;bay1</title>
<path fill="none" stroke="#000000" d="M247,-207.719C247,-198.228 247,-187.0489 247,-175.1408"/>
<polygon fill="#000000" stroke="#000000" points="250.5001,-174.9875 247,-164.9875 243.5001,-174.9876 250.5001,-174.9875"/>
<text text-anchor="middle" x="269.1669" y="-177.1901" font-family="Times,serif" font-size="14.00" fill="#000000">myLink</text>
</g>
</g>
</svg>